<?xml version="1.0" encoding="utf-8"?>
<!-- Generator: Adobe Illustrator 16.0.3, SVG Export Plug-In . SVG Version: 6.00 Build 0)  -->
<!DOCTYPE svg PUBLIC "-//W3C//DTD SVG 1.1//EN" "http://www.w3.org/Graphics/SVG/1.1/DTD/svg11.dtd">
<svg version="1.1" id="Capa_1" xmlns="http://www.w3.org/2000/svg" xmlns:xlink="http://www.w3.org/1999/xlink" x="0px" y="0px"
	 width="598px" height="671px" viewBox="116.445 -32.86 598 671" enable-background="new 116.445 -32.86 598 671"
	 xml:space="preserve">
<path d="M663.296,0H178.573c-11.611,0-20.322,9.825-19.298,21.436l44.273,496.138c1.025,11.601,11.06,23.742,22.314,26.878
	l174.532,48.481c11.238,3.114,29.609,3.135,40.865,0.04l174.748-48.413c11.257-3.126,21.291-15.158,22.315-26.779l44.293-496.345
	C683.641,9.825,674.966,0,663.296,0z M579.232,179.092c-0.008,0.076-0.067,0.136-0.142,0.148c-0.076,0.013-0.149-0.027-0.183-0.098
	l-136.741,56.036c-1.947,0.798-3.058,2.863-2.653,4.929c0.407,2.065,2.219,3.555,4.324,3.555h106.362
	c5.658,0,11.049,2.403,14.832,6.61c3.783,4.208,5.602,9.824,5.001,15.449l-16.619,155.9c-0.815,7.648-5.955,14.146-13.212,16.7
	l-112.896,39.724c-4.252,1.497-8.887,1.509-13.148,0.031l-112.368-38.924c-7.302-2.529-12.484-9.047-13.305-16.729l-7.533-70.604
	c-0.396-3.707,0.802-7.407,3.293-10.179c2.492-2.772,6.044-4.355,9.771-4.355h31.27c6.719,0,12.354,5.067,13.065,11.748
	l4.622,43.398l77.804,27.045l78.161-27.292l9.56-90.007H287.503c-6.698,0-12.325-5.04-13.06-11.698l-4.208-38.147
	c-0.643-5.818,2.641-11.359,8.051-13.589l141.438-58.313c1.604-0.662,2.517-2.363,2.18-4.065c-0.337-1.7-1.828-2.926-3.563-2.926
	H269.428c-4.483,0-8.243-3.386-8.712-7.843l-4.307-41.002c-0.26-2.467,0.541-4.93,2.201-6.774c1.661-1.844,4.027-2.897,6.508-2.897
	h311.589c2.495,0,4.871,1.064,6.533,2.925c1.662,1.862,2.451,4.343,2.169,6.822L579.232,179.092z"/>
</svg>
