<?xml version="1.0" encoding="utf-8"?>
<!-- Generator: Adobe Illustrator 16.0.3, SVG Export Plug-In . SVG Version: 6.00 Build 0)  -->
<!DOCTYPE svg PUBLIC "-//W3C//DTD SVG 1.1//EN" "http://www.w3.org/Graphics/SVG/1.1/DTD/svg11.dtd">
<svg version="1.1" id="Layer_1" xmlns="http://www.w3.org/2000/svg" xmlns:xlink="http://www.w3.org/1999/xlink" x="0px" y="0px"
	 width="290px" height="200px" viewBox="-15.625 -17.488 290 200" enable-background="new -15.625 -17.488 290 200"
	 xml:space="preserve">
<g>
	<path fill="#050505" d="M0,144.967c0-2.645,0.496-5.104,1.487-7.38c0.992-2.275,2.349-4.26,4.076-5.949
		c1.725-1.688,3.763-3.028,6.114-4.019c2.35-0.993,4.92-1.487,7.711-1.487c2.717,0,5.25,0.494,7.601,1.487
		c2.349,0.989,4.407,2.331,6.169,4.019c1.762,1.69,3.139,3.674,4.131,5.949c0.991,2.275,1.487,4.735,1.487,7.38
		s-0.496,5.123-1.487,7.438c-0.992,2.313-2.369,4.313-4.131,6.002c-1.762,1.691-3.82,3.015-6.169,3.968
		c-2.351,0.953-4.885,1.433-7.601,1.433c-2.791,0-5.361-0.479-7.711-1.433c-2.351-0.953-4.389-2.275-6.114-3.968
		c-1.726-1.688-3.084-3.688-4.076-6.002C0.496,150.091,0,147.611,0,144.967z"/>
	<path d="M137.916,104.1c0,8.961-1.121,17.112-3.359,24.455c-2.242,7.345-5.619,13.643-10.135,18.892
		c-4.516,5.25-10.19,9.326-17.019,12.228c-6.83,2.898-14.871,4.352-24.124,4.352c-4.186,0-8.317-0.221-12.393-0.66
		c-4.076-0.441-8.317-1.174-12.723-2.203l1.983-21.702c0.146-1.908,0.899-3.449,2.259-4.627c1.358-1.174,3.249-1.763,5.673-1.763
		c1.248,0,2.79,0.204,4.626,0.606c1.835,0.404,4.038,0.608,6.61,0.608c3.597,0,6.737-0.497,9.419-1.49
		c2.679-0.989,4.902-2.645,6.664-4.957c1.762-2.313,3.085-5.342,3.966-9.087c0.881-3.746,1.322-8.373,1.322-13.881V1.762h37.233
		V104.1H137.916z"/>
	<path d="M248.292,34.369c-1.103,1.762-2.258,3.086-3.47,3.967c-1.213,0.881-2.772,1.319-4.682,1.319
		c-1.69,0-3.508-0.53-5.453-1.596c-1.946-1.064-4.149-2.26-6.608-3.579c-2.461-1.322-5.271-2.518-8.429-3.582
		c-3.157-1.063-6.756-1.596-10.795-1.596c-6.979,0-12.172,1.486-15.588,4.46c-3.414,2.974-5.121,6.994-5.121,12.063
		c0,3.231,1.027,5.909,3.084,8.04c2.056,2.133,4.754,3.967,8.097,5.508c3.34,1.541,7.159,2.956,11.457,4.242
		c4.295,1.285,8.682,2.718,13.163,4.294c4.478,1.582,8.867,3.437,13.164,5.565c4.295,2.129,8.113,4.845,11.455,8.151
		c3.343,3.305,6.041,7.325,8.099,12.062c2.056,4.735,3.084,10.448,3.084,17.13c0,7.417-1.287,14.356-3.856,20.818
		c-2.572,6.464-6.297,12.101-11.181,16.911c-4.885,4.812-10.905,8.592-18.065,11.347c-7.162,2.753-15.295,4.13-24.4,4.13
		c-4.994,0-10.078-0.515-15.256-1.541c-5.178-1.027-10.189-2.479-15.037-4.352c-4.848-1.874-9.402-4.093-13.66-6.665
		c-4.26-2.571-7.969-5.436-11.125-8.594l11.016-17.404c0.808-1.32,1.945-2.386,3.416-3.195c1.467-0.808,3.045-1.211,4.736-1.211
		c2.203,0,4.422,0.7,6.664,2.092c2.238,1.398,4.771,2.939,7.602,4.628c2.824,1.69,6.074,3.231,9.748,4.627
		c3.672,1.396,8.004,2.092,13,2.092c6.754,0,12.006-1.486,15.752-4.46c3.746-2.975,5.617-7.691,5.617-14.155
		c0-3.746-1.029-6.791-3.084-9.143c-2.057-2.352-4.756-4.298-8.096-5.839c-3.344-1.54-7.145-2.901-11.402-4.075
		c-4.26-1.175-8.631-2.479-13.109-3.912c-4.479-1.433-8.852-3.194-13.108-5.287c-4.26-2.092-8.06-4.845-11.399-8.261
		c-3.342-3.416-6.043-7.673-8.099-12.779c-2.058-5.104-3.084-11.4-3.084-18.892c0-6.021,1.213-11.896,3.636-17.627
		c2.424-5.726,5.985-10.829,10.686-15.31c4.699-4.481,10.465-8.061,17.295-10.741S199.604,0,208.416,0
		c4.92,0,9.711,0.386,14.375,1.156c4.664,0.772,9.088,1.912,13.273,3.416c4.188,1.505,8.098,3.305,11.731,5.396
		c3.636,2.092,6.886,4.463,9.75,7.106L248.292,34.369z"/>
</g>
</svg>
